HIERARCHY
ROOT Hips
{
	OFFSET 0.000000 0.000000 0.000000 
	CHANNELS 6 Xposition Yposition Zposition Zrotation Yrotation Xrotation
	JOINT LeftUpLeg
	{
		OFFSET 1.363060 -1.794630 0.839290 
		CHANNELS 3 Zrotation Yrotation Xrotation
		JOINT LeftLeg
		{
			OFFSET 2.448110 -6.726130 0.000000 
			CHANNELS 3 Zrotation Yrotation Xrotation
			JOINT LeftFoot
			{
				OFFSET 2.562200 -7.039590 0.000000 
				CHANNELS 3 Zrotation Yrotation Xrotation
				JOINT LeftToeBase
				{
					OFFSET 0.157640 -0.433110 2.322550 
					CHANNELS 3 Zrotation Yrotation Xrotation
					End Site
					{
						OFFSET 0.000000 0.000000 0.000000 
					}
				}
			}
		}
	}
	JOINT RightUpLeg
	{
		OFFSET -1.305520 -1.794630 0.839290 
		CHANNELS 3 Zrotation Yrotation Xrotation
		JOINT RightLeg
		{
			OFFSET -2.542530 -6.985550 0.000000 
			CHANNELS 3 Zrotation Yrotation Xrotation
			JOINT RightFoot
			{
				OFFSET -2.568260 -7.056230 0.000000 
				CHANNELS 3 Zrotation Yrotation Xrotation
				JOINT RightToeBase
				{
					OFFSET -0.164730 -0.452590 2.363150 
					CHANNELS 3 Zrotation Yrotation Xrotation
					End Site
					{
						OFFSET 0.000000 0.000000 0.000000 
					}
				}
			}
		}
	}
	JOINT Spine
	{
		OFFSET 0.028270 2.035590 -0.193380 
		CHANNELS 3 Zrotation Yrotation Xrotation
		JOINT Spine1
		{
			OFFSET 0.056720 2.048850 -0.042750 
			CHANNELS 3 Zrotation Yrotation Xrotation
			JOINT Neck1
			{
				OFFSET -0.054170 1.746240 0.172020 
				CHANNELS 3 Zrotation Yrotation Xrotation
				JOINT Head
				{
					OFFSET 0.104070 1.761360 -0.123970 
					CHANNELS 3 Zrotation Yrotation Xrotation
					End Site
					{
						OFFSET 0.000000 0.000000 0.000000 
					}
				}
			}
			JOINT LeftArm
			{
				OFFSET 3.362410 1.200890 -0.311210 
				CHANNELS 3 Zrotation Yrotation Xrotation
				JOINT LeftForeArm
				{
					OFFSET 4.983000 -0.000000 -0.000000 
					CHANNELS 3 Zrotation Yrotation Xrotation
					JOINT LeftHand
					{
						OFFSET 3.483560 -0.000000 -0.000000 
						CHANNELS 3 Zrotation Yrotation Xrotation
						JOINT LeftHandIndex1
						{
							OFFSET 0.715260 -0.000000 -0.000000 
							CHANNELS 3 Zrotation Yrotation Xrotation
							End Site
							{
								OFFSET 0.000000 0.000000 0.000000 
							}
						}
					}
				}
			}
			JOINT RightArm
			{
				OFFSET -3.136600 1.374050 -0.404650 
				CHANNELS 3 Zrotation Yrotation Xrotation
				JOINT RightForeArm
				{
					OFFSET -5.241900 -0.000000 -0.000000 
					CHANNELS 3 Zrotation Yrotation Xrotation
					JOINT RightHand
					{
						OFFSET -3.444170 -0.000000 -0.000000 
						CHANNELS 3 Zrotation Yrotation Xrotation
						JOINT RightHandIndex1
						{
							OFFSET -0.622530 -0.000000 -0.000000 
							CHANNELS 3 Zrotation Yrotation Xrotation
							End Site
							{
								OFFSET 0.000000 0.000000 0.000000 
							}
						}
					}
				}
			}
		}
	}
}
MOTION
Frames: 15
Frame Time: 0.041667
3.669290 18.084280 4.807793 -4.076314 -21.433011 -4.891898 -6.524377 -5.918422 -2.873094 1.003246 8.462568 27.207005 -3.482295 12.793196 -10.108167 0.404400 -4.082600 -11.309200 8.948398 7.850434 -21.687925 -11.730014 -16.913177 59.807457 5.300732 -24.023523 16.311854 -0.001300 0.230000 -0.631800 -4.531567 -0.269880 2.932132 -1.102082 0.007842 -1.044973 6.581861 -6.282063 27.827677 2.461300 -2.971300 7.592500 -66.575860 -38.276008 34.245032 119.266163 -56.360147 -88.473508 0.430851 -1.138948 -3.811615 -7.125000 0.000000 0.000000 -34.621073 35.208760 -63.008808 -69.833147 56.423918 -52.644274 0.667379 2.255210 8.187783 7.125000 0.000000 0.000000 
3.644613 18.094546 4.842539 -4.302631 -21.032251 -4.583007 -6.250979 -6.319031 -2.850084 0.954477 8.420699 27.005613 -3.479454 12.765545 -10.069527 0.387900 -3.999600 -11.075500 9.074598 7.869191 -21.867013 -11.254478 -16.712254 58.624201 5.532764 -23.674213 14.428798 0.000000 0.045300 -0.124500 -4.359471 -0.410577 2.879611 -1.049551 -0.061937 -1.177527 6.672588 -6.290357 27.856492 2.509600 -2.977300 7.605500 -66.376385 -37.091776 33.051337 122.325493 -55.498134 -90.775466 0.414110 -1.090488 -3.603621 -7.125000 0.000000 0.000000 -34.911479 34.682849 -65.101733 -73.934501 57.856785 -56.583502 0.653706 2.328344 7.886657 7.125000 0.000000 0.000000 
3.620331 18.101751 4.871757 -4.519603 -20.700854 -4.234891 -5.967855 -6.650375 -2.889230 0.903947 8.371628 26.780928 -3.487985 12.760493 -9.986046 0.382400 -3.971000 -10.995200 9.187503 8.060273 -22.041141 -10.759167 -16.481014 57.300223 5.716208 -23.411353 12.882326 -0.000400 0.124000 -0.340700 -4.281500 -0.450840 2.833843 -1.098163 -0.078748 -1.314548 7.071846 -6.374618 27.776396 2.646400 -2.995500 7.590300 -66.144240 -35.907244 31.986191 125.086772 -54.600184 -92.822434 0.402725 -1.049469 -3.533604 -7.125000 0.000000 0.000000 -35.045701 34.033443 -67.297422 -78.208631 59.318314 -60.507092 0.601518 2.374536 7.506979 7.125000 0.000000 0.000000 
3.594272 18.107180 4.901073 -4.566915 -20.429920 -3.955044 -5.849596 -6.930219 -2.883876 0.854525 8.314962 26.560418 -3.543914 12.889720 -9.945586 0.393200 -4.026200 -11.150300 9.121628 8.369175 -22.154451 -10.242152 -16.227965 55.856016 5.822784 -23.093824 11.668684 -0.004500 0.435300 -1.196000 -4.424203 -0.337569 2.796467 -1.211547 -0.016895 -1.482465 7.342863 -6.583985 27.703609 2.699400 -3.068300 7.582700 -65.834862 -34.833290 31.080237 127.370106 -53.768032 -94.491927 0.392376 -1.016256 -3.528076 -7.125000 0.000000 0.000000 -34.824242 33.227722 -69.352033 -82.783796 60.774350 -64.444988 0.506070 2.381329 7.336198 7.125000 0.000000 0.000000 
3.565942 18.113794 4.935127 -4.532878 -20.106612 -3.765154 -5.793791 -7.177632 -2.812527 0.806975 8.256044 26.352174 -3.561175 12.923434 -9.929161 0.399100 -4.056200 -11.234800 8.952328 8.649713 -22.125416 -9.685628 -15.942943 54.315841 5.923272 -22.694312 10.196987 -0.006900 0.536900 -1.475300 -4.591239 -0.248078 2.837716 -1.284966 0.031478 -1.604296 7.447383 -6.753899 27.530974 2.699600 -3.135100 7.531900 -65.564241 -33.806825 30.089835 129.287156 -53.002595 -95.888453 0.386237 -0.987596 -3.638663 -7.125000 0.000000 0.000000 -34.567418 32.525167 -71.395670 -87.658967 62.110119 -68.285523 0.362893 2.336750 7.248304 7.125000 0.000000 0.000000 
3.537415 18.120013 4.964839 -4.514485 -19.782585 -3.526734 -5.685154 -7.403310 -2.836140 0.760085 8.194815 26.126918 -3.594480 12.979205 -9.791374 0.412400 -4.122400 -11.421300 8.790318 9.026074 -22.095876 -9.126736 -15.629179 52.706560 6.068064 -22.491549 8.702497 -0.010300 0.655600 -1.801500 -4.822919 -0.158384 2.942267 -1.404166 0.077224 -1.665393 7.493953 -6.911437 27.469849 2.663700 -3.188900 7.523800 -65.322599 -32.780630 29.065070 131.050374 -52.242320 -97.160520 0.384174 -0.961964 -3.947288 -7.125000 0.000000 0.000000 -34.268511 31.797361 -73.377909 -92.975746 63.198384 -72.118939 0.155095 2.244894 6.877578 7.125000 0.000000 0.000000 
3.508889 18.125540 4.992872 -4.606139 -19.505310 -3.218318 -5.472598 -7.682970 -2.891481 0.712899 8.141156 25.903960 -3.633158 13.053441 -9.703392 0.426900 -4.193500 -11.621700 8.722386 9.505761 -22.041554 -8.585993 -15.283080 51.019423 6.287039 -22.661104 7.495047 -0.010100 0.650200 -1.786600 -4.975343 -0.091973 3.063613 -1.540791 0.108987 -1.696953 7.163186 -7.065346 27.676521 2.500800 -3.262200 7.609600 -64.989628 -31.689473 27.772271 132.663254 -51.501295 -98.317578 0.384114 -0.938400 -4.623894 -7.125000 0.000000 0.000000 -34.111144 31.149150 -75.256503 -98.411441 63.820477 -75.773119 -0.085782 2.112115 6.476120 7.125000 0.000000 0.000000 
3.479868 18.128995 5.021201 -4.657595 -19.169634 -2.951826 -5.304994 -8.024732 -2.897351 0.667502 8.092340 25.700434 -3.671140 13.131755 -9.647612 0.443900 -4.274900 -11.851300 8.576528 9.927887 -21.907559 -8.064204 -14.917731 49.252475 6.589559 -23.205550 6.612910 -0.010400 0.657700 -1.807300 -5.017790 -0.095553 3.162521 -1.585771 0.106395 -1.759857 6.903390 -7.221592 27.873416 2.392200 -3.347500 7.703300 -64.792122 -30.456132 26.350727 134.028579 -50.853359 -99.282753 0.381469 -0.917262 -5.328888 -7.125000 0.000000 0.000000 -34.197996 30.598395 -76.997140 -103.639134 63.906772 -79.161650 -0.316781 1.956385 6.183748 7.125000 0.000000 0.000000 
3.451440 18.132450 5.048642 -4.702602 -18.811033 -2.684179 -5.149346 -8.400054 -2.895326 0.619095 8.043799 25.500568 -3.664739 13.101232 -9.638544 0.419200 -4.155800 -11.515500 8.387494 10.357203 -21.731825 -7.537614 -14.523695 47.401930 6.914199 -23.854590 5.884776 -0.010300 0.655900 -1.802500 -4.859467 -0.109900 3.162786 -1.521178 0.101728 -1.874335 6.840063 -7.348245 27.979830 2.393100 -3.427600 7.758700 -64.994917 -29.031864 25.115060 135.160370 -50.319716 -100.057342 0.369769 -0.896521 -5.780254 -7.125000 0.000000 0.000000 -34.453552 30.069876 -78.518293 -108.699876 63.504222 -82.432999 -0.536952 1.807900 5.656036 7.125000 0.000000 0.000000 
3.424789 18.140445 5.076083 -4.740720 -18.488446 -2.392056 -5.007118 -8.772507 -2.911468 0.571737 7.994988 25.299706 -3.686860 13.144326 -9.623621 0.403700 -4.079300 -11.299900 8.158171 10.836584 -21.555305 -6.962303 -14.086570 45.475715 6.984287 -23.761900 5.353024 -0.015000 0.790600 -2.172900 -4.710893 -0.097126 3.111267 -1.462112 0.110078 -1.959035 6.804316 -7.394427 27.663326 2.409500 -3.472400 7.630900 -65.222865 -27.634194 23.800430 136.291018 -49.742294 -100.843424 0.373410 -0.879486 -7.152048 -7.125000 0.000000 0.000000 -34.665834 29.590263 -79.867855 -113.483840 62.702324 -85.560308 -0.741874 1.676270 5.142358 7.125000 0.000000 0.000000 
3.397249 18.150711 5.099082 -4.884548 -18.177070 -2.104175 -4.720065 -9.121857 -2.953827 0.526795 7.953317 25.085752 -3.730651 13.234007 -9.541632 0.398100 -4.051000 -11.220200 8.062350 11.412143 -21.299551 -6.386219 -13.603793 43.517848 6.913377 -23.329734 5.200742 -0.036100 1.226900 -3.373300 -5.020930 -0.059217 3.272343 -1.824737 0.121544 -1.925676 6.890698 -7.420963 27.222536 2.389700 -3.459900 7.479100 -64.989236 -26.484020 22.401428 136.940256 -49.406041 -101.284867 0.367643 -0.868127 -8.223487 -7.125000 0.000000 0.000000 -34.564990 29.089174 -81.315229 -117.477605 61.742579 -88.217787 -0.913827 1.566178 5.132138 7.125000 0.000000 0.000000 
3.364379 18.159397 5.120502 -5.311055 -18.024697 -1.824390 -4.163751 -9.273483 -3.041999 0.500592 7.935977 24.915819 -3.722031 13.179736 -9.402855 0.391900 -4.019800 -11.132500 8.301100 12.155749 -20.915963 -5.863785 -13.087200 41.546323 6.975797 -23.398885 5.471097 -0.133300 2.353400 -6.483300 -4.789936 0.109054 3.642862 -2.051675 0.195933 -1.829914 7.187560 -7.684740 27.066930 2.462900 -3.564700 7.495800 -65.190625 -25.613371 21.113147 137.191656 -49.293843 -101.449511 0.360542 -0.862773 -9.223411 -7.125000 0.000000 0.000000 -34.720858 28.391687 -82.676778 -120.711702 60.790344 -90.394186 -1.064976 1.472493 5.276783 7.125000 0.000000 0.000000 
3.333977 18.157324 5.143994 -5.010361 -17.549191 -1.692037 -4.265454 -9.535941 -3.094473 0.461578 7.886229 24.775378 -3.632974 12.933879 -9.341763 0.365300 -3.882600 -10.746500 7.650663 12.519963 -20.661068 -5.335271 -12.615811 39.578829 6.936888 -23.175468 5.715205 -0.061300 1.597600 -4.394900 -4.961604 0.130089 3.872586 -2.057661 0.198684 -1.711178 7.366366 -7.870784 26.964213 2.510900 -3.644300 7.506500 -65.463634 -24.607647 19.789646 137.306393 -49.265217 -101.521853 0.356155 -0.860008 -10.679134 -7.125000 0.000000 0.000000 -34.736608 27.835210 -83.819916 -123.609437 59.796683 -92.360938 -1.204681 1.387642 5.613701 7.125000 0.000000 0.000000 
3.299034 18.150415 5.166401 -4.928680 -17.227096 -1.491586 -4.154666 -9.569949 -3.246793 0.442144 7.860024 24.658372 -3.615722 12.852791 -9.085177 0.390100 -4.010700 -11.106900 7.196874 13.252654 -20.202336 -4.806420 -12.102775 37.675497 6.853206 -22.698425 5.490482 -0.017800 0.861100 -2.366800 -4.948242 0.175086 3.808364 -2.020150 0.225532 -1.829162 7.068418 -7.972181 26.717023 2.407600 -3.720600 7.384500 -65.847521 -23.379714 18.524362 137.228631 -49.368237 -101.448953 0.350940 -0.860582 -12.468104 -7.125000 0.000000 0.000000 -34.699384 27.555930 -84.768117 -126.233759 58.776234 -94.148098 -1.327574 1.321709 5.872304 7.125000 0.000000 0.000000 
3.263499 18.158311 5.188808 -5.000176 -17.002508 -1.264130 -3.890447 -9.468125 -3.460949 0.428479 7.836082 24.526586 -3.615962 12.807829 -8.747776 0.417100 -4.145700 -11.486900 6.889343 14.254341 -19.721868 -4.327820 -11.574430 35.810269 6.844727 -22.501524 5.505213 -0.013500 0.751500 -2.065300 -4.978553 0.357480 4.007337 -2.169608 0.312109 -1.697267 6.995472 -8.200617 26.113286 2.351900 -3.838800 7.165200 -66.117811 -22.521775 17.343109 136.733858 -49.685936 -101.099076 0.347112 -0.868762 -14.354304 -7.125000 0.000000 0.000000 -34.505658 27.122183 -85.792332 -128.740197 57.682341 -95.873930 -1.443929 1.286335 5.638460 7.125000 0.000000 0.000000 
